<?xml version="1.0" standalone="no"?>
<!DOCTYPE svg PUBLIC "-//W3C//DTD SVG 20010904//EN"
 "http://www.w3.org/TR/2001/REC-SVG-20010904/DTD/svg10.dtd">
<svg version="1.0" xmlns="http://www.w3.org/2000/svg"
 width="182.000000pt" height="182.000000pt" viewBox="0 0 182.000000 182.000000"
 preserveAspectRatio="xMidYMid meet">
<metadata>
Created by potrace 1.11, written by Peter Selinger 2001-2013
</metadata>
<g transform="translate(0.000000,182.000000) scale(0.100000,-0.100000)"
fill="#000000" stroke="none">
<path d="M750 1804 c-36 -8 -75 -16 -88 -18 -35 -7 -177 -71 -240 -108 -31
-18 -95 -71 -142 -118 -129 -128 -206 -257 -252 -427 -30 -112 -30 -334 1
-448 145 -539 713 -822 1231 -612 201 81 367 239 465 442 66 135 89 234 89
385 0 174 -22 276 -86 405 -159 315 -450 501 -798 510 -71 2 -140 -3 -180 -11z"/>
</g>
</svg>
